<svg xmlns="http://www.w3.org/2000/svg" viewBox="0 0 520 520" width="520" height="520">
  <path d="M0 80H520M0 160H520M0 240H520M0 320H520M0 400H520M0 480H520M80 0V520M160 0V520M240 0V520M320 0V520M400 0V520M480 0V520" fill="none" stroke="#385463" stroke-opacity="0.12" stroke-width="1"/>
  <path d="M48 360C118 300 178 300 246 332s138 26 226-78" fill="none" stroke="#116a76" stroke-opacity="0.16" stroke-width="2"/>
  <path d="M64 112h28M64 132h52M64 152h36M390 332h68M390 352h42M390 372h58" fill="none" stroke="#9b6b18" stroke-opacity="0.18" stroke-width="3" stroke-linecap="round"/>
</svg>
